<svg width="25" height="27" viewBox="0 0 25 27" fill="none" xmlns="http://www.w3.org/2000/svg">
<path d="M22.5 2H20V1.5C20 1.10218 19.842 0.720644 19.5607 0.43934C19.2794 0.158035 18.8978 0 18.5 0C18.1022 0 17.7206 0.158035 17.4393 0.43934C17.158 0.720644 17 1.10218 17 1.5V2H8V1.5C8 1.10218 7.84196 0.720644 7.56066 0.43934C7.27936 0.158035 6.89782 0 6.5 0C6.10218 0 5.72064 0.158035 5.43934 0.43934C5.15804 0.720644 5 1.10218 5 1.5V2H2.5C1.83696 2 1.20107 2.26339 0.732233 2.73223C0.263392 3.20107 0 3.83696 0 4.5V24.5C0 25.163 0.263392 25.7989 0.732233 26.2678C1.20107 26.7366 1.83696 27 2.5 27H22.5C23.163 27 23.7989 26.7366 24.2678 26.2678C24.7366 25.7989 25 25.163 25 24.5V4.5C25 3.83696 24.7366 3.20107 24.2678 2.73223C23.7989 2.26339 23.163 2 22.5 2ZM5 5C5 5.39782 5.15804 5.77936 5.43934 6.06066C5.72064 6.34196 6.10218 6.5 6.5 6.5C6.89782 6.5 7.27936 6.34196 7.56066 6.06066C7.84196 5.77936 8 5.39782 8 5H17C17 5.39782 17.158 5.77936 17.4393 6.06066C17.7206 6.34196 18.1022 6.5 18.5 6.5C18.8978 6.5 19.2794 6.34196 19.5607 6.06066C19.842 5.77936 20 5.39782 20 5H22V8H3V5H5ZM3 24V11H22V24H3Z" fill="white"/>
</svg>
