<svg width="27" height="26" viewBox="0 0 27 26" fill="none" xmlns="http://www.w3.org/2000/svg">
<path d="M26.9869 9.5C26.9869 9.89782 26.8289 10.2794 26.5476 10.5607C26.2663 10.842 25.8847 11 25.4869 11H23.9869V12.5C23.9869 12.8978 23.8289 13.2794 23.5476 13.5607C23.2663 13.842 22.8847 14 22.4869 14C22.0891 14 21.7075 13.842 21.4262 13.5607C21.1449 13.2794 20.9869 12.8978 20.9869 12.5V11H19.4869C19.0891 11 18.7075 10.842 18.4262 10.5607C18.1449 10.2794 17.9869 9.89782 17.9869 9.5C17.9869 9.10218 18.1449 8.72064 18.4262 8.43934C18.7075 8.15804 19.0891 8 19.4869 8H20.9869V6.5C20.9869 6.10218 21.1449 5.72064 21.4262 5.43934C21.7075 5.15804 22.0891 5 22.4869 5C22.8847 5 23.2663 5.15804 23.5476 5.43934C23.8289 5.72064 23.9869 6.10218 23.9869 6.5V8H25.4869C25.8847 8 26.2663 8.15804 26.5476 8.43934C26.8289 8.72064 26.9869 9.10218 26.9869 9.5ZM14.4869 5H14.9869V5.5C14.9869 5.89782 15.1449 6.27936 15.4262 6.56066C15.7075 6.84196 16.0891 7 16.4869 7C16.8847 7 17.2663 6.84196 17.5476 6.56066C17.8289 6.27936 17.9869 5.89782 17.9869 5.5V5H18.4869C18.8847 5 19.2663 4.84196 19.5476 4.56066C19.8289 4.27936 19.9869 3.89782 19.9869 3.5C19.9869 3.10218 19.8289 2.72064 19.5476 2.43934C19.2663 2.15804 18.8847 2 18.4869 2H17.9869V1.5C17.9869 1.10218 17.8289 0.720644 17.5476 0.43934C17.2663 0.158035 16.8847 0 16.4869 0C16.0891 0 15.7075 0.158035 15.4262 0.43934C15.1449 0.720644 14.9869 1.10218 14.9869 1.5V2H14.4869C14.0891 2 13.7075 2.15804 13.4262 2.43934C13.1449 2.72064 12.9869 3.10218 12.9869 3.5C12.9869 3.89782 13.1449 4.27936 13.4262 4.56066C13.7075 4.84196 14.0891 5 14.4869 5ZM23.9632 16.2975C24.1369 16.4992 24.2538 16.7435 24.302 17.0054C24.3501 17.2673 24.3276 17.5372 24.2369 17.7875C23.5146 19.7588 22.3073 21.5165 20.7266 22.8982C19.1459 24.28 17.2426 25.2413 15.1923 25.6935C13.1421 26.1457 11.011 26.0742 8.99566 25.4856C6.98034 24.897 5.14574 23.8103 3.66117 22.3257C2.17659 20.8412 1.08986 19.0066 0.501267 16.9912C-0.0873252 14.9759 -0.158817 12.8448 0.293387 10.7946C0.745592 8.74435 1.70692 6.84104 3.08867 5.26031C4.47042 3.67957 6.22806 2.47233 8.1994 1.75C8.44934 1.65868 8.71908 1.63549 8.98094 1.68282C9.2428 1.73015 9.48736 1.84628 9.68953 2.01931C9.89169 2.19234 10.0442 2.41604 10.1314 2.66746C10.2186 2.91887 10.2373 3.18896 10.1857 3.45C10.0533 4.1253 9.9867 4.81185 9.9869 5.5C9.98988 8.28386 11.0971 10.9528 13.0656 12.9213C15.0341 14.8898 17.703 15.997 20.4869 16C21.1738 15.9999 21.8591 15.9333 22.5332 15.8013C22.7941 15.7498 23.0641 15.7686 23.3153 15.8558C23.5666 15.943 23.7902 16.0954 23.9632 16.2975ZM20.2369 19C16.7441 18.9318 13.4134 17.514 10.9431 15.0438C8.47291 12.5735 7.05505 9.24278 6.9869 5.75C5.86272 6.55128 4.92669 7.58794 4.24395 8.78781C3.56122 9.98768 3.1482 11.3219 3.03364 12.6977C2.91908 14.0734 3.10574 15.4576 3.58062 16.7539C4.0555 18.0502 4.80719 19.2274 5.78336 20.2035C6.75953 21.1797 7.93673 21.9314 9.233 22.4063C10.5293 22.8812 11.9135 23.0678 13.2892 22.9533C14.665 22.8387 15.9992 22.4257 17.1991 21.7429C18.399 21.0602 19.4356 20.1242 20.2369 19Z" fill="white"/>
</svg>
