<svg width="31" height="24" viewBox="0 0 31 24" fill="none" xmlns="http://www.w3.org/2000/svg">
<path d="M29.5 15.0356H24.9862C24.995 14.8694 25 14.7031 25 14.5356C25 12.0161 23.9991 9.59973 22.2175 7.81813C20.4359 6.03654 18.0196 5.03565 15.5 5.03565C12.9804 5.03565 10.5641 6.03654 8.78249 7.81813C7.00089 9.59973 6 12.0161 6 14.5356C6 14.7031 6 14.8694 6.01375 15.0356H1.5C1.10218 15.0356 0.720644 15.1937 0.43934 15.475C0.158035 15.7563 0 16.1378 0 16.5356C0 16.9335 0.158035 17.315 0.43934 17.5963C0.720644 17.8776 1.10218 18.0356 1.5 18.0356H29.5C29.8978 18.0356 30.2794 17.8776 30.5607 17.5963C30.842 17.315 31 16.9335 31 16.5356C31 16.1378 30.842 15.7563 30.5607 15.475C30.2794 15.1937 29.8978 15.0356 29.5 15.0356ZM9 14.5356C9 12.8117 9.68482 11.1584 10.9038 9.93946C12.1228 8.72047 13.7761 8.03565 15.5 8.03565C17.2239 8.03565 18.8772 8.72047 20.0962 9.93946C21.3152 11.1584 22 12.8117 22 14.5356C22 14.7031 21.9913 14.8694 21.9788 15.0356H9.02125C9.00875 14.8694 9 14.7031 9 14.5356ZM27 21.5356C27 21.9335 26.842 22.315 26.5607 22.5963C26.2794 22.8776 25.8978 23.0356 25.5 23.0356H5.5C5.10218 23.0356 4.72064 22.8776 4.43934 22.5963C4.15804 22.315 4 21.9335 4 21.5356C4 21.1378 4.15804 20.7563 4.43934 20.475C4.72064 20.1937 5.10218 20.0356 5.5 20.0356H25.5C25.8978 20.0356 26.2794 20.1937 26.5607 20.475C26.842 20.7563 27 21.1378 27 21.5356ZM1.0775 8.0619C1.2033 7.68474 1.47369 7.37295 1.82926 7.19505C2.18483 7.01715 2.59648 6.98769 2.97375 7.11315L4.47375 7.61315C4.66266 7.67372 4.83768 7.77116 4.98867 7.89983C5.13966 8.0285 5.26363 8.18584 5.3534 8.36275C5.44317 8.53966 5.49696 8.73262 5.51165 8.93045C5.52634 9.12829 5.50164 9.32708 5.43898 9.5153C5.37632 9.70353 5.27695 9.87745 5.14661 10.027C5.01628 10.1766 4.85757 10.2988 4.67968 10.3866C4.50179 10.4744 4.30824 10.526 4.11026 10.5385C3.91227 10.551 3.71377 10.5241 3.52625 10.4594L2.02625 9.9594C1.83935 9.89712 1.66656 9.79863 1.51773 9.66956C1.3689 9.54049 1.24695 9.38336 1.15885 9.20716C1.07075 9.03096 1.01822 8.83913 1.00426 8.64262C0.990303 8.44612 1.01519 8.24879 1.0775 8.0619ZM8.0775 2.01065C8.00935 1.82241 7.97956 1.62242 7.98991 1.42249C8.00025 1.22256 8.05052 1.02672 8.13773 0.846514C8.22495 0.66631 8.34736 0.50539 8.49775 0.373237C8.64814 0.241084 8.82345 0.140372 9.01337 0.0770377C9.20329 0.0137035 9.40397 -0.0109716 9.60357 0.00446665C9.80318 0.0199049 9.99767 0.0751442 10.1756 0.166929C10.3535 0.258713 10.5113 0.385185 10.6395 0.538891C10.7678 0.692598 10.864 0.870427 10.9225 1.0619L11.4225 2.5619C11.4907 2.75014 11.5204 2.95012 11.5101 3.15006C11.4997 3.34999 11.4495 3.54583 11.3623 3.72603C11.275 3.90624 11.1526 4.06716 11.0022 4.19931C10.8519 4.33146 10.6765 4.43218 10.4866 4.49551C10.2967 4.55884 10.096 4.58352 9.89643 4.56808C9.69682 4.55264 9.50233 4.4974 9.3244 4.40562C9.14648 4.31383 8.98874 4.18736 8.86046 4.03366C8.73218 3.87995 8.63597 3.70212 8.5775 3.51065L8.0775 2.01065ZM25.5775 9.51065C25.5152 9.32376 25.4903 9.12643 25.5043 8.92993C25.5182 8.73342 25.5708 8.54159 25.6589 8.36539C25.747 8.18918 25.8689 8.03206 26.0177 7.90299C26.1666 7.77392 26.3394 7.67543 26.5263 7.61315L28.0263 7.11315C28.4023 6.99256 28.8108 7.02517 29.163 7.20389C29.5152 7.38261 29.7827 7.69302 29.9074 8.06774C30.0322 8.44247 30.0041 8.85128 29.8293 9.20543C29.6545 9.55959 29.3471 9.83051 28.9737 9.9594L27.4737 10.4594C27.0965 10.5849 26.6848 10.5554 26.3293 10.3775C25.9737 10.1996 25.7033 9.88781 25.5775 9.51065ZM19.5775 2.5619L20.0775 1.0619C20.136 0.870427 20.2322 0.692598 20.3605 0.538891C20.4887 0.385185 20.6465 0.258713 20.8244 0.166929C21.0023 0.0751442 21.1968 0.0199049 21.3964 0.00446665C21.596 -0.0109716 21.7967 0.0137035 21.9866 0.0770377C22.1765 0.140372 22.3519 0.241084 22.5023 0.373237C22.6526 0.50539 22.775 0.66631 22.8623 0.846514C22.9495 1.02672 22.9997 1.22256 23.0101 1.42249C23.0204 1.62242 22.9907 1.82241 22.9225 2.01065L22.4225 3.51065C22.364 3.70212 22.2678 3.87995 22.1395 4.03366C22.0113 4.18736 21.8535 4.31383 21.6756 4.40562C21.4977 4.4974 21.3032 4.55264 21.1036 4.56808C20.904 4.58352 20.7033 4.55884 20.5134 4.49551C20.3235 4.43218 20.1481 4.33146 19.9977 4.19931C19.8474 4.06716 19.725 3.90624 19.6377 3.72603C19.5505 3.54583 19.5003 3.34999 19.4899 3.15006C19.4796 2.95012 19.5093 2.75014 19.5775 2.5619Z" fill="white"/>
</svg>
